<svg width="145" height="42" viewBox="0 0 145 42" fill="none" xmlns="http://www.w3.org/2000/svg">
<path d="M0.00922961 41.0686V1.42577H6.52033V35.0185H24.1522V41.0686H0.00922961ZM46.9145 41.5296C41.6134 41.5296 37.8297 40.9918 35.5633 39.9162C33.3353 38.8022 31.914 36.9391 31.2994 34.327C30.6847 31.7149 30.3774 27.3549 30.3774 21.2472C30.3774 15.1394 30.6847 10.7795 31.2994 8.16736C31.914 5.55523 33.3353 3.71138 35.5633 2.6358C37.8297 1.5218 41.6134 0.964806 46.9145 0.964806C52.2156 0.964806 55.9993 1.5218 58.2657 2.6358C60.5321 3.71138 61.9726 5.57444 62.5872 8.22497C63.2018 10.8371 63.5092 15.1778 63.5092 21.2472C63.5092 27.3165 63.2018 31.6765 62.5872 34.327C61.9726 36.9391 60.5321 38.8022 58.2657 39.9162C55.9993 40.9918 52.2156 41.5296 46.9145 41.5296ZM46.9145 35.6523C50.4485 35.6523 52.8302 35.4218 54.0594 34.9608C55.2886 34.4999 56.0761 33.3667 56.4218 31.5612C56.806 29.7558 56.9981 26.3178 56.9981 21.2472C56.9981 16.1766 56.806 12.7386 56.4218 10.9331C56.0761 9.1277 55.2886 7.99449 54.0594 7.53353C52.8302 7.07257 50.4485 6.84209 46.9145 6.84209C43.3804 6.84209 40.9988 7.07257 39.7696 7.53353C38.5787 7.99449 37.7913 9.1277 37.4071 10.9331C37.0614 12.7386 36.8885 16.1766 36.8885 21.2472C36.8885 26.3178 37.0614 29.7558 37.4071 31.5612C37.7913 33.3667 38.5787 34.4999 39.7696 34.9608C40.9988 35.4218 43.3804 35.6523 46.9145 35.6523ZM88.1068 24.6468V19H102.166V40.2619C100.169 40.6461 97.9598 40.9534 95.5398 41.1838C93.1197 41.4143 91.007 41.5296 89.2015 41.5296C84.323 41.5296 80.6929 40.9726 78.3113 39.8586C75.9297 38.7446 74.2779 36.7855 73.3559 33.9813C72.4724 31.1387 72.0307 26.894 72.0307 21.2472C72.0307 15.6004 72.4916 11.3749 73.4136 8.5707C74.3355 5.72809 75.9873 3.74979 78.3689 2.6358C80.7506 1.5218 84.3614 0.964806 89.2015 0.964806C91.1222 0.964806 93.2734 1.08005 95.655 1.31053C98.0367 1.54101 100.13 1.84832 101.936 2.23246V7.70639C97.5949 7.13019 94.2721 6.84209 91.9673 6.84209C87.6266 6.84209 84.6111 7.07257 82.9209 7.53353C81.2691 7.99449 80.1167 9.18532 79.4637 11.106C78.8491 13.0267 78.5418 16.4071 78.5418 21.2472C78.5418 25.7032 78.7723 28.9107 79.2332 30.8698C79.7326 32.7905 80.7121 34.0965 82.1719 34.788C83.6316 35.4794 86.0324 35.8251 89.3744 35.8251C92.217 35.8251 94.3874 35.7099 95.8855 35.4794V24.6468H88.1068ZM127.914 41.5296C122.613 41.5296 118.829 40.9918 116.563 39.9162C114.335 38.8022 112.913 36.9391 112.299 34.327C111.684 31.7149 111.377 27.3549 111.377 21.2472C111.377 15.1394 111.684 10.7795 112.299 8.16736C112.913 5.55523 114.335 3.71138 116.563 2.6358C118.829 1.5218 122.613 0.964806 127.914 0.964806C133.215 0.964806 136.999 1.5218 139.265 2.6358C141.532 3.71138 142.972 5.57444 143.587 8.22497C144.201 10.8371 144.509 15.1778 144.509 21.2472C144.509 27.3165 144.201 31.6765 143.587 34.327C142.972 36.9391 141.532 38.8022 139.265 39.9162C136.999 40.9918 133.215 41.5296 127.914 41.5296ZM127.914 35.6523C131.448 35.6523 133.83 35.4218 135.059 34.9608C136.288 34.4999 137.076 33.3667 137.421 31.5612C137.805 29.7558 137.997 26.3178 137.997 21.2472C137.997 16.1766 137.805 12.7386 137.421 10.9331C137.076 9.1277 136.288 7.99449 135.059 7.53353C133.83 7.07257 131.448 6.84209 127.914 6.84209C124.38 6.84209 121.998 7.07257 120.769 7.53353C119.578 7.99449 118.791 9.1277 118.407 10.9331C118.061 12.7386 117.888 16.1766 117.888 21.2472C117.888 26.3178 118.061 29.7558 118.407 31.5612C118.791 33.3667 119.578 34.4999 120.769 34.9608C121.998 35.4218 124.38 35.6523 127.914 35.6523Z" fill="white"/>
</svg>
