<svg width="29" height="32" viewBox="0 0 29 32" fill="none" xmlns="http://www.w3.org/2000/svg">
<path d="M11.8473 13.4318C10.9413 13.4318 10.226 14.2315 10.226 15.2071C10.226 16.1827 10.9572 16.9824 11.8473 16.9824C12.7532 16.9824 13.4685 16.1827 13.4685 15.2071C13.4844 14.2315 12.7532 13.4318 11.8473 13.4318ZM17.6487 13.4318C16.7427 13.4318 16.0274 14.2315 16.0274 15.2071C16.0274 16.1827 16.7586 16.9824 17.6487 16.9824C18.5546 16.9824 19.2699 16.1827 19.2699 15.2071C19.2699 14.2315 18.5546 13.4318 17.6487 13.4318Z" fill="white"/>
<path d="M25.3733 0.0131836H4.07495C2.2789 0.0131836 0.816628 1.4846 0.816628 3.30787V24.9312C0.816628 26.7545 2.2789 28.2259 4.07495 28.2259H22.0991L21.2567 25.2671L23.2911 27.1703L25.2143 28.9616L28.6316 32.0004V3.30787C28.6316 1.4846 27.1693 0.0131836 25.3733 0.0131836ZM19.2381 20.9008C19.2381 20.9008 18.6659 20.2131 18.1891 19.6054C20.2712 19.0136 21.0659 17.7021 21.0659 17.7021C20.4143 18.1339 19.7944 18.4378 19.2381 18.6457C18.4434 18.9816 17.6804 19.2055 16.9334 19.3335C15.4076 19.6214 14.0089 19.5414 12.8168 19.3175C11.9108 19.1415 11.132 18.8856 10.4803 18.6297C10.1148 18.4858 9.71742 18.3099 9.32006 18.086C9.27238 18.054 9.2247 18.038 9.17701 18.006C9.14523 17.99 9.12933 17.974 9.11344 17.958C8.82734 17.7981 8.6684 17.6861 8.6684 17.6861C8.6684 17.6861 9.43132 18.9656 11.4499 19.5734C10.9731 20.1811 10.385 20.9008 10.385 20.9008C6.87234 20.7889 5.53723 18.4698 5.53723 18.4698C5.53723 13.3199 7.826 9.14554 7.826 9.14554C10.1148 7.41823 12.2923 7.46621 12.2923 7.46621L12.4512 7.65813C9.59027 8.4898 8.27104 9.75329 8.27104 9.75329C8.27104 9.75329 8.62072 9.56137 9.2088 9.28948C10.9095 8.53778 12.2605 8.32986 12.8168 8.28188C12.9122 8.26589 12.9916 8.24989 13.087 8.24989C14.0566 8.12194 15.1533 8.08996 16.2976 8.21791C17.8076 8.39384 19.4288 8.84166 21.0818 9.75329C21.0818 9.75329 19.8262 8.55377 17.1242 7.7221L17.3467 7.46621C17.3467 7.46621 19.5242 7.41823 21.813 9.14554C21.813 9.14554 24.1017 13.3199 24.1017 18.4698C24.1017 18.4698 22.7507 20.7889 19.2381 20.9008Z" fill="white"/>
</svg>
