<svg width="36" height="37" viewBox="0 0 36 37" fill="none" xmlns="http://www.w3.org/2000/svg">
<path d="M32 15.6938H31V9.69385C31 9.42863 30.8947 9.17428 30.7071 8.98674C30.5196 8.7992 30.2652 8.69385 30 8.69385H6.00002C5.76323 8.69771 5.53275 8.61741 5.34963 8.46725C5.1665 8.31709 5.04261 8.10681 5.00002 7.87385V7.51385C5.04261 7.28089 5.1665 7.07061 5.34963 6.92045C5.53275 6.77028 5.76323 6.68999 6.00002 6.69385H29.58C29.8452 6.69385 30.0996 6.58849 30.2871 6.40095C30.4747 6.21342 30.58 5.95906 30.58 5.69385C30.58 5.42863 30.4747 5.17428 30.2871 4.98674C30.0996 4.7992 29.8452 4.69385 29.58 4.69385H6.00002C5.20437 4.69385 4.4413 5.00992 3.87869 5.57253C3.31609 6.13514 3.00002 6.8982 3.00002 7.69385C2.993 7.81375 2.993 7.93395 3.00002 8.05385V28.6238C3.00394 29.1623 3.11388 29.6947 3.32356 30.1906C3.53324 30.6865 3.83855 31.1363 4.22206 31.5142C4.60557 31.8922 5.05976 32.1909 5.55871 32.3933C6.05766 32.5957 6.59159 32.6978 7.13002 32.6938H30C30.2652 32.6938 30.5196 32.5885 30.7071 32.401C30.8947 32.2134 31 31.9591 31 31.6938V25.6938H32C32.2652 25.6938 32.5196 25.5885 32.7071 25.401C32.8947 25.2134 33 24.9591 33 24.6938V16.6938C33 16.4286 32.8947 16.1743 32.7071 15.9867C32.5196 15.7992 32.2652 15.6938 32 15.6938ZM29 30.6938H7.13002C6.57382 30.6992 6.03799 30.4848 5.63911 30.0971C5.24022 29.7094 5.01053 29.18 5.00002 28.6238V10.5738C5.32461 10.6679 5.66238 10.7084 6.00002 10.6938H29V15.6938H22C20.6739 15.6938 19.4022 16.2206 18.4645 17.1583C17.5268 18.096 17 19.3678 17 20.6938C17 22.0199 17.5268 23.2917 18.4645 24.2294C19.4022 25.1671 20.6739 25.6938 22 25.6938H29V30.6938ZM31 23.6938H22C21.2044 23.6938 20.4413 23.3778 19.8787 22.8152C19.3161 22.2526 19 21.4895 19 20.6938C19 19.8982 19.3161 19.1351 19.8787 18.5725C20.4413 18.0099 21.2044 17.6938 22 17.6938H31V23.6938Z" fill="white"/>
<path d="M23.01 22.1938C23.8384 22.1938 24.51 21.5223 24.51 20.6938C24.51 19.8654 23.8384 19.1938 23.01 19.1938C22.1816 19.1938 21.51 19.8654 21.51 20.6938C21.51 21.5223 22.1816 22.1938 23.01 22.1938Z" fill="white"/>
</svg>
