<svg width="41" height="40" viewBox="0 0 41 40" fill="none" xmlns="http://www.w3.org/2000/svg">
<path d="M0.54398 27.4151C3.54437 32.4174 8.28387 36.267 13.9322 38.1383C15.1654 38.3627 15.6148 37.6053 15.6148 36.9548C15.6148 36.6855 15.6102 36.2096 15.6041 35.5728C15.5971 34.8353 15.588 33.8819 15.5815 32.7837C8.72565 34.2654 7.27914 29.4951 7.27914 29.4951C6.15793 26.6627 4.54195 25.9083 4.54195 25.9083C2.30409 24.3859 4.71142 24.416 4.71142 24.416C7.18532 24.5907 8.48658 26.9443 8.48658 26.9443C10.6851 30.6922 14.256 29.6095 15.6602 28.9831C15.8841 27.3975 16.5196 26.3163 17.2247 25.7035C11.7518 25.0846 5.99755 22.9795 5.99755 13.5803C5.99755 10.903 6.95836 8.71361 8.535 6.99851C8.2808 6.37813 7.43498 3.88453 8.77559 0.507035C8.77559 0.507035 10.8455 -0.152503 15.5542 3.02171C17.5198 2.47812 19.629 2.20557 21.7246 2.19654C23.8172 2.20557 25.9265 2.47812 27.895 3.02171C32.6007 -0.152503 34.6661 0.507035 34.6661 0.507035C36.0113 3.88453 35.1654 6.37813 34.9112 6.99851C36.4909 8.71361 37.4457 10.903 37.4457 13.5803C37.4457 23.0036 31.6823 25.0771 26.1913 25.6839C27.0764 26.4413 27.8648 27.9381 27.8648 30.2269C27.8648 32.4192 27.8512 34.3287 27.8423 35.5936C27.8378 36.2201 27.8345 36.6884 27.8345 36.9548C27.8345 37.6113 28.2778 38.3747 29.5292 38.1353C34.0288 36.6406 37.951 33.8912 40.8757 30.3038C36.3568 35.8478 29.4561 39.3912 21.7239 39.3912C12.7209 39.3912 4.84535 34.5875 0.54398 27.4151Z" fill="white"/>
</svg>
