<svg width="29" height="24" viewBox="0 0 29 24" fill="none" xmlns="http://www.w3.org/2000/svg">
<path d="M2.59956 10.3741C10.0661 7.23386 15.0449 5.16361 17.5361 4.16337C24.6489 1.30749 26.1269 0.811393 27.0902 0.794837C27.3021 0.791408 27.7758 0.842096 28.0827 1.08246C28.3418 1.28542 28.4131 1.5596 28.4472 1.75203C28.4813 1.94446 28.5238 2.38282 28.49 2.72534C28.1046 6.63483 26.4368 16.1221 25.5883 20.5008C25.2292 22.3536 24.5223 22.9748 23.8379 23.0356C22.3506 23.1678 21.2211 22.0868 19.7806 21.1752C17.5263 19.7488 16.2528 18.8608 14.0647 17.4689C11.536 15.8602 13.1753 14.9761 14.6164 13.5312C14.9935 13.1531 21.5469 7.399 21.6737 6.87702C21.6896 6.81174 21.7043 6.56839 21.5545 6.4399C21.4048 6.3114 21.1837 6.35534 21.0242 6.39029C20.7981 6.43982 17.197 8.73751 10.2208 13.2834C9.19864 13.9609 8.27279 14.2911 7.44326 14.2738C6.52877 14.2547 4.76966 13.7746 3.46193 13.3643C1.85796 12.861 0.583155 12.5949 0.694162 11.7401C0.751981 11.2949 1.38711 10.8395 2.59956 10.3741Z" fill="white"/>
</svg>
