<svg width="33" height="33" viewBox="0 0 33 33" fill="none" xmlns="http://www.w3.org/2000/svg">
<path fill-rule="evenodd" clip-rule="evenodd" d="M18.3557 0.447101C18.2628 0.565207 17.8843 2.11069 17.5145 3.88132C17.1448 5.65212 16.669 7.90039 16.4572 8.87729L16.0722 10.6536H15.3554C13.0727 10.6536 9.3393 11.8969 7.3638 13.3151L6.93236 13.6247L6.34673 13.1769C4.01531 11.3937 0.77959 13.1741 0.787965 16.2355C0.791105 17.4202 1.15316 18.2384 2.05447 19.0982L2.69109 19.7054L2.6546 21.219C2.61168 23.0009 2.9163 24.2441 3.76064 25.7326C7.28155 31.9403 17.5057 34.1647 24.8435 30.3196C29.0032 28.1399 31.2333 24.7476 31.0089 20.941L30.9313 19.623L31.5247 19.0569C33.4646 17.2066 33.0908 14.022 30.796 12.8491C29.556 12.2153 27.5912 12.4896 26.8788 13.3959C26.7143 13.605 26.5884 13.5657 25.8696 13.0803C24.0564 11.8555 21.1452 10.884 18.7513 10.7044C18.0306 10.6504 17.4409 10.5499 17.4409 10.4809C17.4409 10.2769 19.2262 1.76868 19.2813 1.71058C19.3089 1.68137 20.629 1.96511 22.2147 2.34121L25.0978 3.02506L25.3709 3.8788C26.056 6.02001 28.3132 6.54517 29.8035 4.90985C30.2789 4.38817 30.4508 4.05501 30.529 3.50427C30.7084 2.24174 30.1657 1.11926 29.0973 0.543891C27.9923 -0.0513739 26.673 0.222574 25.8791 1.21226L25.4416 1.75747L22.2264 1.00068C18.6286 0.153732 18.5907 0.148364 18.3557 0.447101ZM12.3858 17.6818C14.0576 18.8499 13.8777 21.487 12.0559 22.5186C10.134 23.6069 7.74454 21.589 8.31341 19.3582C8.80332 17.4373 10.8374 16.5999 12.3858 17.6818ZM23.6532 17.4242C24.77 17.9597 25.5109 19.3519 25.2876 20.4958C24.8607 22.683 22.3507 23.5579 20.8247 22.0514C19.9704 21.208 19.7383 19.8319 20.2665 18.7394C20.6278 17.9918 21.0157 17.6252 21.7305 17.3561C22.5022 17.0656 22.9377 17.0809 23.6532 17.4242ZM12.1211 26.0467C13.3239 26.92 14.9811 27.2923 17.212 27.1904C19.2705 27.0965 20.6098 26.7185 21.5427 25.9682C22.2417 25.4061 22.4347 25.3846 22.7343 25.836C22.8986 26.0836 22.9191 26.2568 22.8096 26.4725C22.5399 27.0049 21.4548 27.7001 20.221 28.1312C19.1254 28.5139 18.7993 28.5539 16.768 28.5539C14.7288 28.5539 14.4131 28.5149 13.2963 28.125C11.3733 27.4535 10.3238 26.416 10.8678 25.7239C11.1268 25.3944 11.2756 25.4328 12.1211 26.0467Z" fill="white"/>
</svg>
