<svg width="34" height="28" viewBox="0 0 34 28" fill="none" xmlns="http://www.w3.org/2000/svg">
<path fill-rule="evenodd" clip-rule="evenodd" d="M33.9651 3.22393C32.738 3.76907 31.4174 4.1362 30.0323 4.30196C31.4464 3.45422 32.5322 2.11251 33.0428 0.513816C31.7212 1.29926 30.2537 1.86776 28.6951 2.17593C27.4457 0.845352 25.6646 0.0131836 23.6965 0.0131836C19.915 0.0131836 16.8489 3.0793 16.8489 6.86077C16.8489 7.39701 16.9101 7.9199 17.0269 8.42164C11.3352 8.13684 6.28995 5.41004 2.91232 1.267C2.32268 2.27828 1.98559 3.45423 1.98559 4.70916C1.98559 7.0844 3.19268 9.1804 5.03168 10.4086C3.90803 10.373 2.85335 10.0649 1.92885 9.55198V9.63764C1.92885 12.9563 4.29074 15.7231 7.42138 16.354C6.84732 16.5097 6.24211 16.5943 5.61798 16.5943C5.17631 16.5943 4.74687 16.5509 4.32856 16.4708C5.19967 19.1909 7.72955 21.1712 10.7256 21.2268C8.3826 23.0625 5.42996 24.1583 2.22144 24.1583C1.6674 24.1583 1.12227 24.126 0.587143 24.0615C3.61766 26.004 7.21668 27.1388 11.0838 27.1388C23.6787 27.1388 30.5664 16.7044 30.5664 7.65622C30.5664 7.35918 30.5608 7.06326 30.5463 6.77066C31.8858 5.80277 33.0473 4.59679 33.9651 3.22393Z" fill="white"/>
</svg>
